STARTFONT 2.1
COMMENT Font converted from FNT/FON to BDF.
FONT -Windows-Visitor  BRK -Medium-R-Normal--9-70-96-96-P-50-ISO8859-1
SIZE 7 96 96
FONTBOUNDINGBOX 9 9 0 -2
STARTPROPERTIES 16
FOUNDRY "Windows"
FAMILY_NAME "Visitor  BRK "
WEIGHT_NAME "Medium"
SLANT "R"
SETWIDTH_NAME "Normal"
PIXEL_SIZE 9
POINT_SIZE 70
RESOLUTION_X 96
RESOLUTION_Y 96
FONT_ASCENT 7
FONT_DESCENT -2
AVERAGE_WIDTH 50
SPACING "P"
CHARSET_REGISTRY "ISO8859"
CHARSET_ENCODING "1"
_GBDFED_INFO "Edited with gbdfed 1.6."
ENDPROPERTIES
CHARS 224
STARTCHAR char32
ENCODING 32
SWIDTH 57 0
DWIDTH 6 0
BBX 0 0 0 0
BITMAP
ENDCHAR
STARTCHAR char33
ENCODING 33
SWIDTH 19 0
DWIDTH 2 0
BBX 1 5 0 0
BITMAP
80
80
80
00
80
ENDCHAR
STARTCHAR char34
ENCODING 34
SWIDTH 38 0
DWIDTH 4 0
BBX 3 2 0 3
BITMAP
A0
A0
ENDCHAR
STARTCHAR char35
ENCODING 35
SWIDTH 57 0
DWIDTH 6 0
BBX 5 5 0 0
BITMAP
50
F8
50
F8
50
ENDCHAR
STARTCHAR char36
ENCODING 36
SWIDTH 57 0
DWIDTH 6 0
BBX 5 7 0 -1
BITMAP
20
F8
80
F8
08
F8
20
ENDCHAR
STARTCHAR char37
ENCODING 37
SWIDTH 57 0
DWIDTH 6 0
BBX 5 5 0 0
BITMAP
C8
D0
20
58
98
ENDCHAR
STARTCHAR char38
ENCODING 38
SWIDTH 57 0
DWIDTH 6 0
BBX 5 7 0 -1
BITMAP
20
F8
80
E0
80
F8
20
ENDCHAR
STARTCHAR char39
ENCODING 39
SWIDTH 19 0
DWIDTH 2 0
BBX 1 2 0 3
BITMAP
80
80
ENDCHAR
STARTCHAR char40
ENCODING 40
SWIDTH 28 0
DWIDTH 3 0
BBX 2 5 0 0
BITMAP
40
80
80
80
40
ENDCHAR
STARTCHAR char41
ENCODING 41
SWIDTH 28 0
DWIDTH 3 0
BBX 2 5 0 0
BITMAP
80
40
40
40
80
ENDCHAR
STARTCHAR char42
ENCODING 42
SWIDTH 57 0
DWIDTH 6 0
BBX 5 3 0 2
BITMAP
A8
70
A8
ENDCHAR
STARTCHAR char43
ENCODING 43
SWIDTH 57 0
DWIDTH 6 0
BBX 5 5 0 0
BITMAP
20
20
F8
20
20
ENDCHAR
STARTCHAR char44
ENCODING 44
SWIDTH 19 0
DWIDTH 2 0
BBX 1 2 0 -1
BITMAP
80
80
ENDCHAR
STARTCHAR char45
ENCODING 45
SWIDTH 57 0
DWIDTH 6 0
BBX 5 1 0 2
BITMAP
F8
ENDCHAR
STARTCHAR char46
ENCODING 46
SWIDTH 19 0
DWIDTH 2 0
BBX 1 1 0 0
BITMAP
80
ENDCHAR
STARTCHAR char47
ENCODING 47
SWIDTH 57 0
DWIDTH 6 0
BBX 5 5 0 0
BITMAP
08
10
20
40
80
ENDCHAR
STARTCHAR char48
ENCODING 48
SWIDTH 57 0
DWIDTH 6 0
BBX 5 5 0 0
BITMAP
F8
88
88
88
F8
ENDCHAR
STARTCHAR char49
ENCODING 49
SWIDTH 28 0
DWIDTH 3 0
BBX 2 5 0 0
BITMAP
C0
40
40
40
40
ENDCHAR
STARTCHAR char50
ENCODING 50
SWIDTH 57 0
DWIDTH 6 0
BBX 5 5 0 0
BITMAP
F8
08
F8
80
F8
ENDCHAR
STARTCHAR char51
ENCODING 51
SWIDTH 57 0
DWIDTH 6 0
BBX 5 5 0 0
BITMAP
F8
08
38
08
F8
ENDCHAR
STARTCHAR char52
ENCODING 52
SWIDTH 57 0
DWIDTH 6 0
BBX 5 5 0 0
BITMAP
88
88
F8
08
08
ENDCHAR
STARTCHAR char53
ENCODING 53
SWIDTH 57 0
DWIDTH 6 0
BBX 5 5 0 0
BITMAP
F8
80
F8
08
F8
ENDCHAR
STARTCHAR char54
ENCODING 54
SWIDTH 57 0
DWIDTH 6 0
BBX 5 5 0 0
BITMAP
F8
80
F8
88
F8
ENDCHAR
STARTCHAR char55
ENCODING 55
SWIDTH 57 0
DWIDTH 6 0
BBX 5 5 0 0
BITMAP
F8
08
08
08
08
ENDCHAR
STARTCHAR char56
ENCODING 56
SWIDTH 57 0
DWIDTH 6 0
BBX 5 5 0 0
BITMAP
F8
88
F8
88
F8
ENDCHAR
STARTCHAR char57
ENCODING 57
SWIDTH 57 0
DWIDTH 6 0
BBX 5 5 0 0
BITMAP
F8
88
F8
08
08
ENDCHAR
STARTCHAR char58
ENCODING 58
SWIDTH 19 0
DWIDTH 2 0
BBX 1 5 0 0
BITMAP
80
00
00
00
80
ENDCHAR
STARTCHAR char59
ENCODING 59
SWIDTH 19 0
DWIDTH 2 0
BBX 1 6 0 -1
BITMAP
80
00
00
00
80
80
ENDCHAR
STARTCHAR char60
ENCODING 60
SWIDTH 38 0
DWIDTH 4 0
BBX 3 5 0 0
BITMAP
20
40
80
40
20
ENDCHAR
STARTCHAR char61
ENCODING 61
SWIDTH 57 0
DWIDTH 6 0
BBX 5 3 0 1
BITMAP
F8
00
F8
ENDCHAR
STARTCHAR char62
ENCODING 62
SWIDTH 38 0
DWIDTH 4 0
BBX 3 5 0 0
BITMAP
80
40
20
40
80
ENDCHAR
STARTCHAR char63
ENCODING 63
SWIDTH 57 0
DWIDTH 6 0
BBX 5 5 0 0
BITMAP
F8
08
38
00
20
ENDCHAR
STARTCHAR char64
ENCODING 64
SWIDTH 57 0
DWIDTH 6 0
BBX 5 5 0 0
BITMAP
F8
88
B8
A8
B8
ENDCHAR
STARTCHAR char65
ENCODING 65
SWIDTH 57 0
DWIDTH 6 0
BBX 5 5 0 0
BITMAP
F8
88
F8
88
88
ENDCHAR
STARTCHAR char66
ENCODING 66
SWIDTH 57 0
DWIDTH 6 0
BBX 5 5 0 0
BITMAP
F0
88
F8
88
F0
ENDCHAR
STARTCHAR char67
ENCODING 67
SWIDTH 57 0
DWIDTH 6 0
BBX 5 5 0 0
BITMAP
F8
80
80
80
F8
ENDCHAR
STARTCHAR char68
ENCODING 68
SWIDTH 57 0
DWIDTH 6 0
BBX 5 5 0 0
BITMAP
F0
88
88
88
F0
ENDCHAR
STARTCHAR char69
ENCODING 69
SWIDTH 57 0
DWIDTH 6 0
BBX 5 5 0 0
BITMAP
F8
80
E0
80
F8
ENDCHAR
STARTCHAR char70
ENCODING 70
SWIDTH 57 0
DWIDTH 6 0
BBX 5 5 0 0
BITMAP
F8
80
E0
80
80
ENDCHAR
STARTCHAR char71
ENCODING 71
SWIDTH 57 0
DWIDTH 6 0
BBX 5 5 0 0
BITMAP
F8
80
B8
88
F8
ENDCHAR
STARTCHAR char72
ENCODING 72
SWIDTH 57 0
DWIDTH 6 0
BBX 5 5 0 0
BITMAP
88
88
F8
88
88
ENDCHAR
STARTCHAR char73
ENCODING 73
SWIDTH 57 0
DWIDTH 6 0
BBX 5 5 0 0
BITMAP
F8
20
20
20
F8
ENDCHAR
STARTCHAR char74
ENCODING 74
SWIDTH 57 0
DWIDTH 6 0
BBX 5 5 0 0
BITMAP
08
08
08
88
F8
ENDCHAR
STARTCHAR char75
ENCODING 75
SWIDTH 57 0
DWIDTH 6 0
BBX 5 5 0 0
BITMAP
88
90
E0
90
88
ENDCHAR
STARTCHAR char76
ENCODING 76
SWIDTH 57 0
DWIDTH 6 0
BBX 5 5 0 0
BITMAP
80
80
80
80
F8
ENDCHAR
STARTCHAR char77
ENCODING 77
SWIDTH 57 0
DWIDTH 6 0
BBX 5 5 0 0
BITMAP
88
D8
A8
88
88
ENDCHAR
STARTCHAR char78
ENCODING 78
SWIDTH 57 0
DWIDTH 6 0
BBX 5 5 0 0
BITMAP
88
C8
A8
98
88
ENDCHAR
STARTCHAR char79
ENCODING 79
SWIDTH 57 0
DWIDTH 6 0
BBX 5 5 0 0
BITMAP
F8
88
88
88
F8
ENDCHAR
STARTCHAR char80
ENCODING 80
SWIDTH 57 0
DWIDTH 6 0
BBX 5 5 0 0
BITMAP
F0
88
F8
80
80
ENDCHAR
STARTCHAR char81
ENCODING 81
SWIDTH 57 0
DWIDTH 6 0
BBX 5 6 0 -1
BITMAP
F8
88
88
A8
F8
20
ENDCHAR
STARTCHAR char82
ENCODING 82
SWIDTH 57 0
DWIDTH 6 0
BBX 5 5 0 0
BITMAP
F0
88
F8
90
88
ENDCHAR
STARTCHAR char83
ENCODING 83
SWIDTH 57 0
DWIDTH 6 0
BBX 5 5 0 0
BITMAP
F8
80
F8
08
F8
ENDCHAR
STARTCHAR char84
ENCODING 84
SWIDTH 57 0
DWIDTH 6 0
BBX 5 5 0 0
BITMAP
F8
20
20
20
20
ENDCHAR
STARTCHAR char85
ENCODING 85
SWIDTH 57 0
DWIDTH 6 0
BBX 5 5 0 0
BITMAP
88
88
88
88
F8
ENDCHAR
STARTCHAR char86
ENCODING 86
SWIDTH 57 0
DWIDTH 6 0
BBX 5 5 0 0
BITMAP
88
88
88
50
20
ENDCHAR
STARTCHAR char87
ENCODING 87
SWIDTH 57 0
DWIDTH 6 0
BBX 5 5 0 0
BITMAP
88
88
A8
D8
88
ENDCHAR
STARTCHAR char88
ENCODING 88
SWIDTH 57 0
DWIDTH 6 0
BBX 5 5 0 0
BITMAP
88
50
20
50
88
ENDCHAR
STARTCHAR char89
ENCODING 89
SWIDTH 57 0
DWIDTH 6 0
BBX 5 5 0 0
BITMAP
88
88
F8
20
20
ENDCHAR
STARTCHAR char90
ENCODING 90
SWIDTH 57 0
DWIDTH 6 0
BBX 5 5 0 0
BITMAP
F8
10
20
40
F8
ENDCHAR
STARTCHAR char91
ENCODING 91
SWIDTH 28 0
DWIDTH 3 0
BBX 2 5 0 0
BITMAP
C0
80
80
80
C0
ENDCHAR
STARTCHAR char92
ENCODING 92
SWIDTH 57 0
DWIDTH 6 0
BBX 5 5 0 0
BITMAP
80
40
20
10
08
ENDCHAR
STARTCHAR char93
ENCODING 93
SWIDTH 28 0
DWIDTH 3 0
BBX 2 5 0 0
BITMAP
C0
40
40
40
C0
ENDCHAR
STARTCHAR char94
ENCODING 94
SWIDTH 38 0
DWIDTH 4 0
BBX 3 2 0 3
BITMAP
40
A0
ENDCHAR
STARTCHAR char95
ENCODING 95
SWIDTH 57 0
DWIDTH 6 0
BBX 5 1 0 -2
BITMAP
F8
ENDCHAR
STARTCHAR char96
ENCODING 96
SWIDTH 19 0
DWIDTH 2 0
BBX 1 2 0 3
BITMAP
80
80
ENDCHAR
STARTCHAR char97
ENCODING 97
SWIDTH 57 0
DWIDTH 6 0
BBX 5 5 0 0
BITMAP
F8
88
F8
88
88
ENDCHAR
STARTCHAR char98
ENCODING 98
SWIDTH 57 0
DWIDTH 6 0
BBX 5 5 0 0
BITMAP
F8
88
F0
88
F8
ENDCHAR
STARTCHAR char99
ENCODING 99
SWIDTH 57 0
DWIDTH 6 0
BBX 5 5 0 0
BITMAP
F8
80
80
80
F8
ENDCHAR
STARTCHAR char100
ENCODING 100
SWIDTH 57 0
DWIDTH 6 0
BBX 5 5 0 0
BITMAP
F0
88
88
88
F0
ENDCHAR
STARTCHAR char101
ENCODING 101
SWIDTH 57 0
DWIDTH 6 0
BBX 5 5 0 0
BITMAP
F8
80
E0
80
F8
ENDCHAR
STARTCHAR char102
ENCODING 102
SWIDTH 57 0
DWIDTH 6 0
BBX 5 5 0 0
BITMAP
F8
80
E0
80
80
ENDCHAR
STARTCHAR char103
ENCODING 103
SWIDTH 57 0
DWIDTH 6 0
BBX 5 5 0 0
BITMAP
F8
80
B8
88
F8
ENDCHAR
STARTCHAR char104
ENCODING 104
SWIDTH 57 0
DWIDTH 6 0
BBX 5 5 0 0
BITMAP
88
88
F8
88
88
ENDCHAR
STARTCHAR char105
ENCODING 105
SWIDTH 19 0
DWIDTH 2 0
BBX 1 5 0 0
BITMAP
80
80
80
80
80
ENDCHAR
STARTCHAR char106
ENCODING 106
SWIDTH 57 0
DWIDTH 6 0
BBX 5 5 0 0
BITMAP
08
08
08
88
F8
ENDCHAR
STARTCHAR char107
ENCODING 107
SWIDTH 57 0
DWIDTH 6 0
BBX 5 5 0 0
BITMAP
88
90
E0
90
88
ENDCHAR
STARTCHAR char108
ENCODING 108
SWIDTH 57 0
DWIDTH 6 0
BBX 5 5 0 0
BITMAP
80
80
80
80
F8
ENDCHAR
STARTCHAR char109
ENCODING 109
SWIDTH 57 0
DWIDTH 6 0
BBX 5 5 0 0
BITMAP
F8
A8
A8
A8
A8
ENDCHAR
STARTCHAR char110
ENCODING 110
SWIDTH 57 0
DWIDTH 6 0
BBX 5 5 0 0
BITMAP
F8
88
88
88
88
ENDCHAR
STARTCHAR char111
ENCODING 111
SWIDTH 57 0
DWIDTH 6 0
BBX 5 5 0 0
BITMAP
F8
88
88
88
F8
ENDCHAR
STARTCHAR char112
ENCODING 112
SWIDTH 57 0
DWIDTH 6 0
BBX 5 5 0 0
BITMAP
F8
88
F8
80
80
ENDCHAR
STARTCHAR char113
ENCODING 113
SWIDTH 57 0
DWIDTH 6 0
BBX 5 6 0 -1
BITMAP
F8
88
88
A8
F8
20
ENDCHAR
STARTCHAR char114
ENCODING 114
SWIDTH 57 0
DWIDTH 6 0
BBX 5 5 0 0
BITMAP
F8
88
F8
90
88
ENDCHAR
STARTCHAR char115
ENCODING 115
SWIDTH 57 0
DWIDTH 6 0
BBX 5 5 0 0
BITMAP
F8
80
F8
08
F8
ENDCHAR
STARTCHAR char116
ENCODING 116
SWIDTH 57 0
DWIDTH 6 0
BBX 5 5 0 0
BITMAP
F8
20
20
20
20
ENDCHAR
STARTCHAR char117
ENCODING 117
SWIDTH 57 0
DWIDTH 6 0
BBX 5 5 0 0
BITMAP
88
88
88
88
F8
ENDCHAR
STARTCHAR char118
ENCODING 118
SWIDTH 57 0
DWIDTH 6 0
BBX 5 5 0 0
BITMAP
88
88
88
50
20
ENDCHAR
STARTCHAR char119
ENCODING 119
SWIDTH 57 0
DWIDTH 6 0
BBX 5 5 0 0
BITMAP
A8
A8
A8
A8
F8
ENDCHAR
STARTCHAR char120
ENCODING 120
SWIDTH 57 0
DWIDTH 6 0
BBX 5 5 0 0
BITMAP
88
50
20
50
88
ENDCHAR
STARTCHAR char121
ENCODING 121
SWIDTH 57 0
DWIDTH 6 0
BBX 5 5 0 0
BITMAP
88
50
20
20
20
ENDCHAR
STARTCHAR char122
ENCODING 122
SWIDTH 57 0
DWIDTH 6 0
BBX 5 5 0 0
BITMAP
F8
10
20
40
F8
ENDCHAR
STARTCHAR char123
ENCODING 123
SWIDTH 38 0
DWIDTH 4 0
BBX 3 5 0 0
BITMAP
60
40
C0
40
60
ENDCHAR
STARTCHAR char124
ENCODING 124
SWIDTH 19 0
DWIDTH 2 0
BBX 1 7 0 -1
BITMAP
80
80
80
80
80
80
80
ENDCHAR
STARTCHAR char125
ENCODING 125
SWIDTH 38 0
DWIDTH 4 0
BBX 3 5 0 0
BITMAP
C0
40
60
40
C0
ENDCHAR
STARTCHAR char126
ENCODING 126
SWIDTH 57 0
DWIDTH 6 0
BBX 5 3 0 1
BITMAP
E0
A8
38
ENDCHAR
STARTCHAR char127
ENCODING 127
SWIDTH 57 0
DWIDTH 6 0
BBX 5 5 0 0
BITMAP
F8
88
A8
88
F8
ENDCHAR
STARTCHAR char128
ENCODING 128
SWIDTH 57 0
DWIDTH 6 0
BBX 5 5 0 0
BITMAP
F8
88
A8
88
F8
ENDCHAR
STARTCHAR char129
ENCODING 129
SWIDTH 57 0
DWIDTH 6 0
BBX 5 5 0 0
BITMAP
F8
88
A8
88
F8
ENDCHAR
STARTCHAR char130
ENCODING 130
SWIDTH 19 0
DWIDTH 2 0
BBX 1 2 0 -1
BITMAP
80
80
ENDCHAR
STARTCHAR char131
ENCODING 131
SWIDTH 57 0
DWIDTH 6 0
BBX 5 5 0 0
BITMAP
78
40
E0
40
C0
ENDCHAR
STARTCHAR char132
ENCODING 132
SWIDTH 38 0
DWIDTH 4 0
BBX 3 2 0 -1
BITMAP
A0
A0
ENDCHAR
STARTCHAR char133
ENCODING 133
SWIDTH 57 0
DWIDTH 6 0
BBX 5 1 0 0
BITMAP
A8
ENDCHAR
STARTCHAR char134
ENCODING 134
SWIDTH 57 0
DWIDTH 6 0
BBX 6 9 0 -2
BITMAP
20
20
F8
20
20
20
20
20
20
ENDCHAR
STARTCHAR char135
ENCODING 135
SWIDTH 57 0
DWIDTH 6 0
BBX 6 9 0 -2
BITMAP
20
20
F8
20
20
20
F8
20
20
ENDCHAR
STARTCHAR char136
ENCODING 136
SWIDTH 38 0
DWIDTH 4 0
BBX 3 2 0 5
BITMAP
40
A0
ENDCHAR
STARTCHAR char137
ENCODING 137
SWIDTH 86 0
DWIDTH 9 0
BBX 8 5 0 0
BITMAP
C8
D0
20
5B
9B
ENDCHAR
STARTCHAR char138
ENCODING 138
SWIDTH 57 0
DWIDTH 6 0
BBX 5 7 0 0
BITMAP
50
20
F8
80
F8
08
F8
ENDCHAR
STARTCHAR char139
ENCODING 139
SWIDTH 28 0
DWIDTH 3 0
BBX 2 3 0 1
BITMAP
40
80
40
ENDCHAR
STARTCHAR char140
ENCODING 140
SWIDTH 57 0
DWIDTH 6 0
BBX 5 5 0 0
BITMAP
F8
A0
B8
A0
F8
ENDCHAR
STARTCHAR char141
ENCODING 141
SWIDTH 57 0
DWIDTH 6 0
BBX 5 5 0 0
BITMAP
F8
88
A8
88
F8
ENDCHAR
STARTCHAR char142
ENCODING 142
SWIDTH 57 0
DWIDTH 6 0
BBX 5 5 0 0
BITMAP
F8
88
A8
88
F8
ENDCHAR
STARTCHAR char143
ENCODING 143
SWIDTH 57 0
DWIDTH 6 0
BBX 5 5 0 0
BITMAP
F8
88
A8
88
F8
ENDCHAR
STARTCHAR char144
ENCODING 144
SWIDTH 57 0
DWIDTH 6 0
BBX 5 5 0 0
BITMAP
F8
88
A8
88
F8
ENDCHAR
STARTCHAR char145
ENCODING 145
SWIDTH 19 0
DWIDTH 2 0
BBX 1 2 0 5
BITMAP
80
80
ENDCHAR
STARTCHAR char146
ENCODING 146
SWIDTH 19 0
DWIDTH 2 0
BBX 1 2 0 5
BITMAP
80
80
ENDCHAR
STARTCHAR char147
ENCODING 147
SWIDTH 38 0
DWIDTH 4 0
BBX 3 2 0 5
BITMAP
A0
A0
ENDCHAR
STARTCHAR char148
ENCODING 148
SWIDTH 38 0
DWIDTH 4 0
BBX 3 2 0 5
BITMAP
A0
A0
ENDCHAR
STARTCHAR char149
ENCODING 149
SWIDTH 57 0
DWIDTH 6 0
BBX 5 5 0 0
BITMAP
20
70
F8
70
20
ENDCHAR
STARTCHAR char150
ENCODING 150
SWIDTH 28 0
DWIDTH 3 0
BBX 2 1 0 2
BITMAP
C0
ENDCHAR
STARTCHAR char151
ENCODING 151
SWIDTH 48 0
DWIDTH 5 0
BBX 4 1 0 2
BITMAP
F0
ENDCHAR
STARTCHAR char152
ENCODING 152
SWIDTH 57 0
DWIDTH 6 0
BBX 5 2 0 5
BITMAP
E8
B8
ENDCHAR
STARTCHAR char153
ENCODING 153
SWIDTH 57 0
DWIDTH 6 0
BBX 6 9 0 -2
BITMAP
F8
20
20
20
00
88
D8
A8
88
ENDCHAR
STARTCHAR char154
ENCODING 154
SWIDTH 57 0
DWIDTH 6 0
BBX 5 7 0 0
BITMAP
50
20
F8
80
F8
08
F8
ENDCHAR
STARTCHAR char155
ENCODING 155
SWIDTH 28 0
DWIDTH 3 0
BBX 2 3 0 1
BITMAP
80
40
80
ENDCHAR
STARTCHAR char156
ENCODING 156
SWIDTH 57 0
DWIDTH 6 0
BBX 5 5 0 0
BITMAP
F8
A0
B8
A0
F8
ENDCHAR
STARTCHAR char157
ENCODING 157
SWIDTH 57 0
DWIDTH 6 0
BBX 5 5 0 0
BITMAP
F8
88
A8
88
F8
ENDCHAR
STARTCHAR char158
ENCODING 158
SWIDTH 57 0
DWIDTH 6 0
BBX 5 5 0 0
BITMAP
F8
88
A8
88
F8
ENDCHAR
STARTCHAR char159
ENCODING 159
SWIDTH 57 0
DWIDTH 6 0
BBX 5 7 0 0
BITMAP
D8
D8
88
88
F8
20
20
ENDCHAR
STARTCHAR char160
ENCODING 160
SWIDTH 57 0
DWIDTH 6 0
BBX 0 0 0 0
BITMAP
ENDCHAR
STARTCHAR char161
ENCODING 161
SWIDTH 19 0
DWIDTH 2 0
BBX 1 5 0 0
BITMAP
80
00
80
80
80
ENDCHAR
STARTCHAR char162
ENCODING 162
SWIDTH 57 0
DWIDTH 6 0
BBX 5 7 0 -1
BITMAP
20
F8
80
80
80
F8
20
ENDCHAR
STARTCHAR char163
ENCODING 163
SWIDTH 57 0
DWIDTH 6 0
BBX 5 5 0 0
BITMAP
F0
48
E0
40
F8
ENDCHAR
STARTCHAR char164
ENCODING 164
SWIDTH 57 0
DWIDTH 6 0
BBX 5 5 0 0
BITMAP
88
70
50
70
88
ENDCHAR
STARTCHAR char165
ENCODING 165
SWIDTH 57 0
DWIDTH 6 0
BBX 5 5 0 0
BITMAP
88
F8
70
20
70
ENDCHAR
STARTCHAR char166
ENCODING 166
SWIDTH 19 0
DWIDTH 2 0
BBX 1 7 0 -1
BITMAP
80
80
80
00
80
80
80
ENDCHAR
STARTCHAR char167
ENCODING 167
SWIDTH 57 0
DWIDTH 6 0
BBX 5 7 0 -1
BITMAP
F8
80
F8
88
F8
08
F8
ENDCHAR
STARTCHAR char168
ENCODING 168
SWIDTH 57 0
DWIDTH 6 0
BBX 5 2 0 5
BITMAP
D8
D8
ENDCHAR
STARTCHAR char169
ENCODING 169
SWIDTH 57 0
DWIDTH 6 0
BBX 5 7 0 -1
BITMAP
70
88
F8
C8
F8
88
70
ENDCHAR
STARTCHAR char170
ENCODING 170
SWIDTH 28 0
DWIDTH 3 0
BBX 2 4 0 3
BITMAP
C0
40
C0
C0
ENDCHAR
STARTCHAR char171
ENCODING 171
SWIDTH 57 0
DWIDTH 6 0
BBX 5 3 0 1
BITMAP
48
90
48
ENDCHAR
STARTCHAR char172
ENCODING 172
SWIDTH 57 0
DWIDTH 6 0
BBX 5 2 0 2
BITMAP
F8
08
ENDCHAR
STARTCHAR char173
ENCODING 173
SWIDTH 38 0
DWIDTH 4 0
BBX 3 1 0 2
BITMAP
E0
ENDCHAR
STARTCHAR char174
ENCODING 174
SWIDTH 57 0
DWIDTH 6 0
BBX 5 7 0 -1
BITMAP
70
88
F8
E8
D8
88
70
ENDCHAR
STARTCHAR char175
ENCODING 175
SWIDTH 57 0
DWIDTH 6 0
BBX 5 1 0 6
BITMAP
F8
ENDCHAR
STARTCHAR char176
ENCODING 176
SWIDTH 38 0
DWIDTH 4 0
BBX 3 3 0 4
BITMAP
E0
A0
E0
ENDCHAR
STARTCHAR char177
ENCODING 177
SWIDTH 57 0
DWIDTH 6 0
BBX 5 5 0 0
BITMAP
20
F8
20
00
F8
ENDCHAR
STARTCHAR char178
ENCODING 178
SWIDTH 38 0
DWIDTH 4 0
BBX 3 4 0 3
BITMAP
E0
20
C0
E0
ENDCHAR
STARTCHAR char179
ENCODING 179
SWIDTH 38 0
DWIDTH 4 0
BBX 3 4 0 3
BITMAP
E0
60
20
E0
ENDCHAR
STARTCHAR char180
ENCODING 180
SWIDTH 28 0
DWIDTH 3 0
BBX 2 2 0 5
BITMAP
40
80
ENDCHAR
STARTCHAR char181
ENCODING 181
SWIDTH 57 0
DWIDTH 6 0
BBX 5 7 0 -2
BITMAP
88
88
88
88
F8
80
80
ENDCHAR
STARTCHAR char182
ENCODING 182
SWIDTH 57 0
DWIDTH 6 0
BBX 5 5 0 0
BITMAP
F8
E8
E8
28
28
ENDCHAR
STARTCHAR char183
ENCODING 183
SWIDTH 38 0
DWIDTH 4 0
BBX 3 3 0 1
BITMAP
E0
E0
E0
ENDCHAR
STARTCHAR char184
ENCODING 184
SWIDTH 28 0
DWIDTH 3 0
BBX 2 2 0 -2
BITMAP
40
C0
ENDCHAR
STARTCHAR char185
ENCODING 185
SWIDTH 28 0
DWIDTH 3 0
BBX 2 4 0 3
BITMAP
40
C0
40
40
ENDCHAR
STARTCHAR char186
ENCODING 186
SWIDTH 38 0
DWIDTH 4 0
BBX 3 4 0 3
BITMAP
E0
A0
A0
E0
ENDCHAR
STARTCHAR char187
ENCODING 187
SWIDTH 57 0
DWIDTH 6 0
BBX 5 3 0 1
BITMAP
90
48
90
ENDCHAR
STARTCHAR char188
ENCODING 188
SWIDTH 57 0
DWIDTH 6 0
BBX 5 7 0 -1
BITMAP
80
88
90
A8
68
B8
08
ENDCHAR
STARTCHAR char189
ENCODING 189
SWIDTH 57 0
DWIDTH 6 0
BBX 5 7 0 -1
BITMAP
80
88
90
B8
48
B0
38
ENDCHAR
STARTCHAR char190
ENCODING 190
SWIDTH 57 0
DWIDTH 6 0
BBX 5 7 0 -1
BITMAP
E0
68
30
E8
68
B8
08
ENDCHAR
STARTCHAR char191
ENCODING 191
SWIDTH 57 0
DWIDTH 6 0
BBX 5 5 0 0
BITMAP
20
00
E0
80
F8
ENDCHAR
STARTCHAR char192
ENCODING 192
SWIDTH 57 0
DWIDTH 6 0
BBX 5 7 0 0
BITMAP
40
20
F8
88
F8
88
88
ENDCHAR
STARTCHAR char193
ENCODING 193
SWIDTH 57 0
DWIDTH 6 0
BBX 5 7 0 0
BITMAP
10
20
F8
88
F8
88
88
ENDCHAR
STARTCHAR char194
ENCODING 194
SWIDTH 57 0
DWIDTH 6 0
BBX 5 7 0 0
BITMAP
20
50
F8
88
F8
88
88
ENDCHAR
STARTCHAR char195
ENCODING 195
SWIDTH 57 0
DWIDTH 6 0
BBX 5 7 0 0
BITMAP
E8
B8
F8
88
F8
88
88
ENDCHAR
STARTCHAR char196
ENCODING 196
SWIDTH 57 0
DWIDTH 6 0
BBX 5 7 0 0
BITMAP
D8
D8
F8
88
F8
88
88
ENDCHAR
STARTCHAR char197
ENCODING 197
SWIDTH 57 0
DWIDTH 6 0
BBX 5 7 0 0
BITMAP
70
50
F8
88
F8
88
88
ENDCHAR
STARTCHAR char198
ENCODING 198
SWIDTH 57 0
DWIDTH 6 0
BBX 5 5 0 0
BITMAP
F8
A0
F8
A0
B8
ENDCHAR
STARTCHAR char199
ENCODING 199
SWIDTH 57 0
DWIDTH 6 0
BBX 5 7 0 -2
BITMAP
F8
80
80
80
F8
20
60
ENDCHAR
STARTCHAR char200
ENCODING 200
SWIDTH 57 0
DWIDTH 6 0
BBX 5 7 0 0
BITMAP
40
20
F8
80
E0
80
F8
ENDCHAR
STARTCHAR char201
ENCODING 201
SWIDTH 57 0
DWIDTH 6 0
BBX 5 7 0 0
BITMAP
10
20
F8
80
E0
80
F8
ENDCHAR
STARTCHAR char202
ENCODING 202
SWIDTH 57 0
DWIDTH 6 0
BBX 5 7 0 0
BITMAP
20
50
F8
80
E0
80
F8
ENDCHAR
STARTCHAR char203
ENCODING 203
SWIDTH 57 0
DWIDTH 6 0
BBX 5 7 0 0
BITMAP
D8
D8
F8
80
E0
80
F8
ENDCHAR
STARTCHAR char204
ENCODING 204
SWIDTH 57 0
DWIDTH 6 0
BBX 5 7 0 0
BITMAP
40
20
F8
20
20
20
F8
ENDCHAR
STARTCHAR char205
ENCODING 205
SWIDTH 57 0
DWIDTH 6 0
BBX 5 7 0 0
BITMAP
10
20
F8
20
20
20
F8
ENDCHAR
STARTCHAR char206
ENCODING 206
SWIDTH 57 0
DWIDTH 6 0
BBX 5 7 0 0
BITMAP
20
50
F8
20
20
20
F8
ENDCHAR
STARTCHAR char207
ENCODING 207
SWIDTH 57 0
DWIDTH 6 0
BBX 5 7 0 0
BITMAP
D8
D8
F8
20
20
20
F8
ENDCHAR
STARTCHAR char208
ENCODING 208
SWIDTH 57 0
DWIDTH 6 0
BBX 5 5 0 0
BITMAP
F0
88
C8
88
F0
ENDCHAR
STARTCHAR char209
ENCODING 209
SWIDTH 57 0
DWIDTH 6 0
BBX 5 7 0 0
BITMAP
E8
B8
88
C8
A8
98
88
ENDCHAR
STARTCHAR char210
ENCODING 210
SWIDTH 57 0
DWIDTH 6 0
BBX 5 7 0 0
BITMAP
40
20
F8
88
88
88
F8
ENDCHAR
STARTCHAR char211
ENCODING 211
SWIDTH 57 0
DWIDTH 6 0
BBX 5 7 0 0
BITMAP
10
20
F8
88
88
88
F8
ENDCHAR
STARTCHAR char212
ENCODING 212
SWIDTH 57 0
DWIDTH 6 0
BBX 5 7 0 0
BITMAP
20
50
F8
88
88
88
F8
ENDCHAR
STARTCHAR char213
ENCODING 213
SWIDTH 57 0
DWIDTH 6 0
BBX 5 7 0 0
BITMAP
E8
B8
F8
88
88
88
F8
ENDCHAR
STARTCHAR char214
ENCODING 214
SWIDTH 57 0
DWIDTH 6 0
BBX 5 7 0 0
BITMAP
D8
D8
F8
88
88
88
F8
ENDCHAR
STARTCHAR char215
ENCODING 215
SWIDTH 38 0
DWIDTH 4 0
BBX 3 3 0 1
BITMAP
A0
40
A0
ENDCHAR
STARTCHAR char216
ENCODING 216
SWIDTH 57 0
DWIDTH 6 0
BBX 5 5 0 0
BITMAP
F8
98
A8
C8
F8
ENDCHAR
STARTCHAR char217
ENCODING 217
SWIDTH 57 0
DWIDTH 6 0
BBX 5 7 0 0
BITMAP
40
20
88
88
88
88
F8
ENDCHAR
STARTCHAR char218
ENCODING 218
SWIDTH 57 0
DWIDTH 6 0
BBX 5 7 0 0
BITMAP
10
20
88
88
88
88
F8
ENDCHAR
STARTCHAR char219
ENCODING 219
SWIDTH 57 0
DWIDTH 6 0
BBX 5 7 0 0
BITMAP
20
50
88
88
88
88
F8
ENDCHAR
STARTCHAR char220
ENCODING 220
SWIDTH 57 0
DWIDTH 6 0
BBX 5 7 0 0
BITMAP
D8
D8
88
88
88
88
F8
ENDCHAR
STARTCHAR char221
ENCODING 221
SWIDTH 57 0
DWIDTH 6 0
BBX 5 7 0 0
BITMAP
10
20
88
88
F8
20
20
ENDCHAR
STARTCHAR char222
ENCODING 222
SWIDTH 57 0
DWIDTH 6 0
BBX 5 7 0 -1
BITMAP
80
F0
88
88
88
F0
80
ENDCHAR
STARTCHAR char223
ENCODING 223
SWIDTH 57 0
DWIDTH 6 0
BBX 5 5 0 0
BITMAP
F8
88
F0
88
B8
ENDCHAR
STARTCHAR char224
ENCODING 224
SWIDTH 57 0
DWIDTH 6 0
BBX 5 7 0 0
BITMAP
40
20
F8
88
F8
88
88
ENDCHAR
STARTCHAR char225
ENCODING 225
SWIDTH 57 0
DWIDTH 6 0
BBX 5 7 0 0
BITMAP
10
20
F8
88
F8
88
88
ENDCHAR
STARTCHAR char226
ENCODING 226
SWIDTH 57 0
DWIDTH 6 0
BBX 5 7 0 0
BITMAP
20
50
F8
88
F8
88
88
ENDCHAR
STARTCHAR char227
ENCODING 227
SWIDTH 57 0
DWIDTH 6 0
BBX 5 7 0 0
BITMAP
E8
B8
F8
88
F8
88
88
ENDCHAR
STARTCHAR char228
ENCODING 228
SWIDTH 57 0
DWIDTH 6 0
BBX 5 7 0 0
BITMAP
D8
D8
F8
88
F8
88
88
ENDCHAR
STARTCHAR char229
ENCODING 229
SWIDTH 57 0
DWIDTH 6 0
BBX 5 7 0 0
BITMAP
70
50
F8
88
F8
88
88
ENDCHAR
STARTCHAR char230
ENCODING 230
SWIDTH 57 0
DWIDTH 6 0
BBX 5 5 0 0
BITMAP
F8
A0
F8
A0
B8
ENDCHAR
STARTCHAR char231
ENCODING 231
SWIDTH 57 0
DWIDTH 6 0
BBX 5 7 0 -2
BITMAP
F8
80
80
80
F8
20
60
ENDCHAR
STARTCHAR char232
ENCODING 232
SWIDTH 57 0
DWIDTH 6 0
BBX 5 7 0 0
BITMAP
40
20
F8
80
E0
80
F8
ENDCHAR
STARTCHAR char233
ENCODING 233
SWIDTH 57 0
DWIDTH 6 0
BBX 5 7 0 0
BITMAP
10
20
F8
80
E0
80
F8
ENDCHAR
STARTCHAR char234
ENCODING 234
SWIDTH 57 0
DWIDTH 6 0
BBX 5 7 0 0
BITMAP
20
50
F8
80
E0
80
F8
ENDCHAR
STARTCHAR char235
ENCODING 235
SWIDTH 57 0
DWIDTH 6 0
BBX 5 7 0 0
BITMAP
D8
D8
F8
80
E0
80
F8
ENDCHAR
STARTCHAR char236
ENCODING 236
SWIDTH 28 0
DWIDTH 3 0
BBX 2 7 0 0
BITMAP
80
40
80
80
80
80
80
ENDCHAR
STARTCHAR char237
ENCODING 237
SWIDTH 28 0
DWIDTH 3 0
BBX 2 7 0 0
BITMAP
40
80
40
40
40
40
40
ENDCHAR
STARTCHAR char238
ENCODING 238
SWIDTH 38 0
DWIDTH 4 0
BBX 3 7 0 0
BITMAP
40
A0
40
40
40
40
40
ENDCHAR
STARTCHAR char239
ENCODING 239
SWIDTH 38 0
DWIDTH 4 0
BBX 3 7 0 0
BITMAP
A0
A0
40
40
40
40
40
ENDCHAR
STARTCHAR char240
ENCODING 240
SWIDTH 57 0
DWIDTH 6 0
BBX 5 5 0 0
BITMAP
F0
88
C8
88
F0
ENDCHAR
STARTCHAR char241
ENCODING 241
SWIDTH 57 0
DWIDTH 6 0
BBX 5 7 0 0
BITMAP
E8
B8
F8
88
88
88
88
ENDCHAR
STARTCHAR char242
ENCODING 242
SWIDTH 57 0
DWIDTH 6 0
BBX 5 7 0 0
BITMAP
40
20
F8
88
88
88
F8
ENDCHAR
STARTCHAR char243
ENCODING 243
SWIDTH 57 0
DWIDTH 6 0
BBX 5 7 0 0
BITMAP
10
20
F8
88
88
88
F8
ENDCHAR
STARTCHAR char244
ENCODING 244
SWIDTH 57 0
DWIDTH 6 0
BBX 5 7 0 0
BITMAP
20
50
F8
88
88
88
F8
ENDCHAR
STARTCHAR char245
ENCODING 245
SWIDTH 57 0
DWIDTH 6 0
BBX 5 7 0 0
BITMAP
E8
B8
F8
88
88
88
F8
ENDCHAR
STARTCHAR char246
ENCODING 246
SWIDTH 57 0
DWIDTH 6 0
BBX 5 7 0 0
BITMAP
D8
D8
F8
88
88
88
F8
ENDCHAR
STARTCHAR char247
ENCODING 247
SWIDTH 38 0
DWIDTH 4 0
BBX 3 5 0 0
BITMAP
40
00
E0
00
40
ENDCHAR
STARTCHAR char248
ENCODING 248
SWIDTH 57 0
DWIDTH 6 0
BBX 5 5 0 0
BITMAP
F8
98
A8
C8
F8
ENDCHAR
STARTCHAR char249
ENCODING 249
SWIDTH 57 0
DWIDTH 6 0
BBX 5 7 0 0
BITMAP
40
20
88
88
88
88
F8
ENDCHAR
STARTCHAR char250
ENCODING 250
SWIDTH 57 0
DWIDTH 6 0
BBX 5 7 0 0
BITMAP
10
20
88
88
88
88
F8
ENDCHAR
STARTCHAR char251
ENCODING 251
SWIDTH 57 0
DWIDTH 6 0
BBX 5 7 0 0
BITMAP
20
50
88
88
88
88
F8
ENDCHAR
STARTCHAR char252
ENCODING 252
SWIDTH 57 0
DWIDTH 6 0
BBX 5 7 0 0
BITMAP
D8
D8
88
88
88
88
F8
ENDCHAR
STARTCHAR char253
ENCODING 253
SWIDTH 57 0
DWIDTH 6 0
BBX 5 7 0 0
BITMAP
10
20
88
50
20
20
20
ENDCHAR
STARTCHAR char254
ENCODING 254
SWIDTH 57 0
DWIDTH 6 0
BBX 6 9 0 -2
BITMAP
80
80
F0
88
88
88
F0
80
80
ENDCHAR
STARTCHAR char255
ENCODING 255
SWIDTH 57 0
DWIDTH 6 0
BBX 5 7 0 0
BITMAP
D8
D8
88
50
20
20
20
ENDCHAR
ENDFONT
